<svg width="17" height="17" viewBox="0 0 17 17" fill="none" xmlns="http://www.w3.org/2000/svg">
<g id="iwwa:delete">
<path id="Vector" d="M9.13707 8.4976L13.9209 3.70912C14.0053 3.62431 14.0526 3.50951 14.0525 3.38986C14.0524 3.27021 14.0049 3.15547 13.9204 3.07077C13.7513 2.90247 13.4534 2.90162 13.2825 3.07162L8.49999 7.8601L3.71577 3.07035C3.54577 2.90247 3.24784 2.90332 3.07869 3.0712C3.03671 3.11302 3.00347 3.16278 2.98092 3.21758C2.95838 3.27238 2.94697 3.33112 2.94737 3.39037C2.94737 3.51107 2.99412 3.62412 3.07869 3.70785L7.86249 8.49717L3.07912 13.2869C2.99471 13.3719 2.94743 13.4868 2.94767 13.6066C2.94791 13.7263 2.99564 13.8411 3.08039 13.9257C3.16242 14.0069 3.27844 14.0536 3.39829 14.0536H3.40084C3.52112 14.0532 3.63714 14.006 3.71747 13.924L8.49999 9.13552L13.2842 13.9253C13.3688 14.0094 13.4818 14.0562 13.6017 14.0562C13.661 14.0563 13.7197 14.0448 13.7745 14.0222C13.8292 13.9996 13.879 13.9664 13.9209 13.9245C13.9628 13.8826 13.996 13.8328 14.0186 13.778C14.0412 13.7232 14.0528 13.6645 14.0526 13.6052C14.0526 13.485 14.0059 13.3715 13.9209 13.2878L9.13707 8.4976Z" fill="black"/>
</g>
</svg>
