<svg width="33" height="33" viewBox="0 0 33 33" fill="none" xmlns="http://www.w3.org/2000/svg">
<g id="line-md:confirm-circle">
<g id="Group">
<path id="Vector" d="M5 17.375C5 10.5405 10.5405 5 17.375 5C24.2096 5 29.75 10.5405 29.75 17.375C29.75 24.2096 24.2096 29.75 17.375 29.75C10.5405 29.75 5 24.2096 5 17.375Z" stroke="#640FAF" stroke-width="2" stroke-linecap="round" stroke-linejoin="round"/>
<path id="Vector_2" d="M12.6447 12.6247C12.7316 12.5376 12.8349 12.4685 12.9486 12.4214C13.0623 12.3742 13.1841 12.35 13.3072 12.35C13.4303 12.35 13.5521 12.3742 13.6658 12.4214C13.7795 12.4685 13.8827 12.5376 13.9697 12.6247L17.3697 16.0234L20.7697 12.6247C20.8567 12.5377 20.96 12.4687 21.0736 12.4216C21.1873 12.3745 21.3092 12.3503 21.4322 12.3503C21.5552 12.3503 21.6771 12.3745 21.7907 12.4216C21.9044 12.4687 22.0077 12.5377 22.0947 12.6247C22.1817 12.7117 22.2507 12.815 22.2978 12.9286C22.3449 13.0423 22.3691 13.1641 22.3691 13.2872C22.3691 13.4102 22.3449 13.532 22.2978 13.6457C22.2507 13.7594 22.1817 13.8627 22.0947 13.9497L18.6959 17.3497L22.0947 20.7497C22.2704 20.9254 22.3691 21.1637 22.3691 21.4122C22.3691 21.6607 22.2704 21.899 22.0947 22.0747C21.919 22.2504 21.6807 22.3491 21.4322 22.3491C21.1837 22.3491 20.9454 22.2504 20.7697 22.0747L17.3697 18.6759L13.9697 22.0747C13.794 22.2504 13.5557 22.3491 13.3072 22.3491C13.0587 22.3491 12.8204 22.2504 12.6447 22.0747C12.469 21.899 12.3703 21.6607 12.3703 21.4122C12.3703 21.1637 12.469 20.9254 12.6447 20.7497L16.0434 17.3497L12.6447 13.9497C12.5576 13.8627 12.4885 13.7594 12.4414 13.6458C12.3943 13.5321 12.37 13.4102 12.37 13.2872C12.37 13.1641 12.3943 13.0423 12.4414 12.9286C12.4885 12.8149 12.5576 12.7116 12.6447 12.6247Z" fill="#640FAF"/>
</g>
</g>
</svg>
