<svg width="33" height="33" viewBox="0 0 33 33" fill="none" xmlns="http://www.w3.org/2000/svg">
<g id="ci:clock">
<path id="Vector" d="M16.5 9.625V16.5H23.375M16.5 28.875C14.8749 28.875 13.2657 28.5549 11.7643 27.933C10.2629 27.3111 8.89868 26.3996 7.74955 25.2504C6.60043 24.1013 5.68889 22.7371 5.06699 21.2357C4.44509 19.7343 4.125 18.1251 4.125 16.5C4.125 14.8749 4.44509 13.2657 5.06699 11.7643C5.68889 10.2629 6.60043 8.89868 7.74955 7.74955C8.89868 6.60043 10.2629 5.68889 11.7643 5.06699C13.2657 4.44509 14.8749 4.125 16.5 4.125C19.7821 4.125 22.9297 5.42879 25.2504 7.74955C27.5712 10.0703 28.875 13.2179 28.875 16.5C28.875 19.7821 27.5712 22.9297 25.2504 25.2504C22.9297 27.5712 19.7821 28.875 16.5 28.875Z" stroke="#640FAF" stroke-width="2" stroke-linecap="round" stroke-linejoin="round"/>
</g>
</svg>
