<svg width="21" height="21" viewBox="0 0 21 21" fill="none" xmlns="http://www.w3.org/2000/svg">
<g id="ion:location-outline">
<path id="Vector" d="M10.5 1.96875C7.23926 1.96875 4.59375 4.4867 4.59375 7.58789C4.59375 11.1562 8.53125 16.8111 9.97705 18.7642C10.0371 18.8467 10.1157 18.9138 10.2066 18.96C10.2975 19.0063 10.398 19.0304 10.5 19.0304C10.602 19.0304 10.7025 19.0063 10.7934 18.96C10.8843 18.9138 10.9629 18.8467 11.0229 18.7642C12.4688 16.8119 16.4062 11.1591 16.4062 7.58789C16.4062 4.4867 13.7607 1.96875 10.5 1.96875Z" stroke="#4C4C4C" stroke-width="1.5" stroke-linecap="round" stroke-linejoin="round"/>
<path id="Vector_2" d="M10.5 9.84375C11.5873 9.84375 12.4688 8.96231 12.4688 7.875C12.4688 6.78769 11.5873 5.90625 10.5 5.90625C9.41269 5.90625 8.53125 6.78769 8.53125 7.875C8.53125 8.96231 9.41269 9.84375 10.5 9.84375Z" stroke="#4C4C4C" stroke-width="1.5" stroke-linecap="round" stroke-linejoin="round"/>
</g>
</svg>
