<?xml version="1.0"?>
<svg width="1920" height="1080" xmlns="http://www.w3.org/2000/svg" xmlns:svg="http://www.w3.org/2000/svg" enable-background="new 0 0 1920 1080" version="1.1" xml:space="preserve">
 <style type="text/css">.st0{fill:#640FAF;}</style>
 <g class="layer">
  <title>Layer 1</title>
  <g id="logo_x5F_main">
   <g id="svg_1">
    <polygon class="st0" id="svg_2" points="60.14996337890625,0.6199951171875 0,240.54000854492188 32.469970703125,240.54000854492188 78.04998779296875,41.53997802734375 102.91998291015625,150.11001586914062 64.969970703125,150.11001586914062 57.68994140625,181.80001831054688 137.42999267578125,181.79000854492188 95.89996337890625,0.6199951171875 "/>
    <path class="st0" d="m134.27,0.62l-26.57,0l7.26,31.67l12.85,0c15.17,0 26.83,4.33 34.96,12.97c8.13,8.65 12.19,22.05 12.19,40.22l0,7.91c0,30.7 -10.84,50.55 -33.15,56.32l7.34,32.02c38.62,-6.93 57.63,-37.04 57.63,-87.14l0,-12.17c0,-27.94 -6.25,-48.56 -18.76,-61.86c-12.49,-13.28 -30.41,-19.94 -53.75,-19.94z" id="svg_3"/>
   </g>
   <g id="svg_4">
    <polygon class="st0" id="svg_5" points="572.2099609375,0 572.2099609375,182.43997192382812 668.159912109375,182.43997192382812 668.159912109375,163.08999633789062 594.159912109375,163.08999633789062 594.159912109375,19.3499755859375 668.159912109375,19.3499755859375 668.159912109375,0 "/>
    <rect class="st0" height="182.44" id="svg_6" width="21.95" x="695.49" y="0"/>
   </g>
   <g id="svg_7">
    <polygon class="st0" id="svg_8" points="531.169921875,0 531.169921875,71.51998901367188 516.989990234375,71.51998901367188 516.989990234375,0 495.0399169921875,0 495.0399169921875,182.43997192382812 516.989990234375,182.43997192382812 516.989990234375,90.87997436523438 531.169921875,90.87997436523438 531.169921875,182.43997192382812 553.1199951171875,182.43997192382812 553.1199951171875,0 "/>
    <polygon class="st0" id="svg_9" points="424.8699951171875,163.08999633789062 424.8699951171875,100.89999389648438 476.669921875,100.89999389648438 476.669921875,0 402.91998291015625,0 402.91998291015625,19.3499755859375 454.719970703125,19.3499755859375 454.719970703125,81.53997802734375 402.91998291015625,81.53997802734375 402.91998291015625,182.43997192382812 486.3699951171875,182.43997192382812 486.3699951171875,163.08999633789062 "/>
   </g>
   <g id="svg_10">
    <rect class="st0" height="19.35" id="svg_11" width="163.78" x="229.33" y="74.88"/>
    <path class="st0" d="m382.55,63.34l0,-19.35l-25.89,0l0,-24.64l25.89,0l0,-19.35l-142.68,0l0,19.35l25.89,0l0,24.64l-25.89,0l0,19.35l142.68,0zm-47.84,-43.99l0,24.64l-47,0l0,-24.64l47,0z" id="svg_12"/>
    <polygon class="st0" id="svg_13" points="239.80999755859375,105.27999877929688 239.80999755859375,123.13998413085938 360.66998291015625,123.13998413085938 360.66998291015625,134.92996215820312 239.80999755859375,134.92996215820312 239.80999755859375,182.43997192382812 382.6199951171875,182.43997192382812 382.6199951171875,164.57998657226562 261.75,164.57998657226562 261.75,152.79000854492188 382.6199951171875,152.79000854492188 382.6199951171875,105.27999877929688 "/>
   </g>
  </g>
 </g>
</svg>