<svg width="350" height="350" viewBox="0 0 350 350" fill="none" xmlns="http://www.w3.org/2000/svg">
<path d="M119.795 22L43 328.311H84.455L142.648 74.2433L174.4 212.857H125.948L116.654 253.316L218.46 253.303L165.437 22H119.795Z" fill="#640FAF"/>
<path d="M214.425 22H180.503L189.772 62.4337H206.178C225.545 62.4337 240.432 67.9619 250.812 78.9927C261.191 90.0364 266.375 107.144 266.375 130.342V140.441C266.375 179.637 252.535 204.979 224.052 212.346L233.423 253.227C282.73 244.379 307 205.937 307 141.973V126.436C307 90.7641 299.021 64.4382 283.049 47.4578C267.103 30.503 244.224 22 214.425 22Z" fill="#640FAF"/>
</svg>
