<svg width="29" height="27" viewBox="0 0 29 27" fill="none" xmlns="http://www.w3.org/2000/svg">
<g id="ph:plus">
<path id="Vector" d="M23.625 13.5C23.625 13.7238 23.5361 13.9384 23.3779 14.0966C23.2196 14.2549 23.005 14.3438 22.7812 14.3438H14.3438V22.7812C14.3438 23.005 14.2549 23.2196 14.0966 23.3779C13.9384 23.5361 13.7238 23.625 13.5 23.625C13.2762 23.625 13.0616 23.5361 12.9034 23.3779C12.7451 23.2196 12.6562 23.005 12.6562 22.7812V14.3438H4.21875C3.99497 14.3438 3.78036 14.2549 3.62213 14.0966C3.4639 13.9384 3.375 13.7238 3.375 13.5C3.375 13.2762 3.4639 13.0616 3.62213 12.9034C3.78036 12.7451 3.99497 12.6562 4.21875 12.6562H12.6562V4.21875C12.6562 3.99497 12.7451 3.78036 12.9034 3.62213C13.0616 3.4639 13.2762 3.375 13.5 3.375C13.7238 3.375 13.9384 3.4639 14.0966 3.62213C14.2549 3.78036 14.3438 3.99497 14.3438 4.21875V12.6562H22.7812C23.005 12.6562 23.2196 12.7451 23.3779 12.9034C23.5361 13.0616 23.625 13.2762 23.625 13.5Z" fill="white"/>
</g>
</svg>
