<svg width="33" height="33" viewBox="0 0 33 33" fill="none" xmlns="http://www.w3.org/2000/svg">
<g id="ph:alarm">
<path id="Vector" d="M16.5 4.12496C14.0524 4.12496 11.6599 4.85074 9.62481 6.21053C7.58975 7.57031 6.00362 9.50302 5.06698 11.7643C4.13035 14.0255 3.88528 16.5137 4.36278 18.9142C4.84027 21.3147 6.01887 23.5197 7.74955 25.2504C9.48022 26.9811 11.6852 28.1597 14.0858 28.6372C16.4863 29.1147 18.9745 28.8696 21.2357 27.933C23.4969 26.9963 25.4296 25.4102 26.7894 23.3751C28.1492 21.3401 28.875 18.9475 28.875 16.5C28.8712 13.2191 27.5662 10.0736 25.2463 7.75366C22.9263 5.43371 19.7809 4.12872 16.5 4.12496ZM16.5 26.8125C14.4604 26.8125 12.4666 26.2076 10.7707 25.0745C9.07479 23.9413 7.75301 22.3307 6.97249 20.4464C6.19196 18.562 5.98774 16.4885 6.38565 14.4881C6.78356 12.4877 7.76573 10.6502 9.20795 9.20792C10.6502 7.76569 12.4877 6.78352 14.4881 6.38561C16.4886 5.9877 18.5621 6.19193 20.4464 6.97246C22.3308 7.75298 23.9414 9.07476 25.0745 10.7706C26.2077 12.4665 26.8125 14.4603 26.8125 16.5C26.8094 19.2341 25.7219 21.8553 23.7886 23.7886C21.8553 25.7219 19.2341 26.8094 16.5 26.8125ZM7.94835 3.82332L3.82335 7.94832C3.62985 8.14183 3.3674 8.25054 3.09374 8.25054C2.82009 8.25054 2.55764 8.14183 2.36413 7.94832C2.17063 7.75482 2.06192 7.49237 2.06192 7.21871C2.06192 6.94506 2.17063 6.68261 2.36413 6.4891L6.48913 2.3641C6.58495 2.26829 6.6987 2.19229 6.82388 2.14043C6.94907 2.08858 7.08324 2.06189 7.21874 2.06189C7.35424 2.06189 7.48842 2.08858 7.61361 2.14043C7.73879 2.19229 7.85254 2.26829 7.94835 2.3641C8.04417 2.45992 8.12017 2.57366 8.17202 2.69885C8.22388 2.82404 8.25057 2.95821 8.25057 3.09371C8.25057 3.22921 8.22388 3.36339 8.17202 3.48857C8.12017 3.61376 8.04417 3.72751 7.94835 3.82332ZM30.6359 7.94832C30.5401 8.0442 30.4263 8.12027 30.3012 8.17216C30.176 8.22406 30.0418 8.25077 29.9062 8.25077C29.7707 8.25077 29.6365 8.22406 29.5113 8.17216C29.3861 8.12027 29.2724 8.0442 29.1766 7.94832L25.0516 3.82332C24.8581 3.62982 24.7494 3.36737 24.7494 3.09371C24.7494 2.82006 24.8581 2.55761 25.0516 2.3641C25.2451 2.1706 25.5076 2.06189 25.7812 2.06189C26.0549 2.06189 26.3174 2.1706 26.5109 2.3641L30.6359 6.4891C30.7317 6.58488 30.8078 6.69861 30.8597 6.82381C30.9116 6.949 30.9383 7.08319 30.9383 7.21871C30.9383 7.35423 30.9116 7.48843 30.8597 7.61362C30.8078 7.73881 30.7317 7.85255 30.6359 7.94832ZM23.7187 15.4687C23.9922 15.4687 24.2546 15.5774 24.4479 15.7708C24.6413 15.9642 24.75 16.2265 24.75 16.5C24.75 16.7735 24.6413 17.0358 24.4479 17.2292C24.2546 17.4226 23.9922 17.5312 23.7187 17.5312H16.5C16.2265 17.5312 15.9642 17.4226 15.7708 17.2292C15.5774 17.0358 15.4687 16.7735 15.4687 16.5V9.28121C15.4687 9.00771 15.5774 8.74541 15.7708 8.55201C15.9642 8.35861 16.2265 8.24996 16.5 8.24996C16.7735 8.24996 17.0358 8.35861 17.2292 8.55201C17.4226 8.74541 17.5312 9.00771 17.5312 9.28121V15.4687H23.7187Z" fill="#640FAF"/>
</g>
</svg>
