<svg width="22" height="23" viewBox="0 0 22 23" fill="none" xmlns="http://www.w3.org/2000/svg">
<path d="M16.8103 7.80521C16.6878 9.50589 15.4262 10.816 14.0504 10.816C12.6747 10.816 11.411 9.50631 11.2906 7.80521C11.1651 6.03596 12.3933 4.79443 14.0504 4.79443C15.7076 4.79443 16.9358 6.06816 16.8103 7.80521Z" stroke="#4C4C4C" stroke-width="1.5" stroke-linecap="round" stroke-linejoin="round"/>
<path d="M14.0502 13.4922C11.325 13.4922 8.7044 14.8458 8.04788 17.4819C7.9609 17.8306 8.1796 18.1756 8.53797 18.1756H19.5629C19.9212 18.1756 20.1387 17.8306 20.0529 17.4819C19.3964 14.8036 16.7758 13.4922 14.0502 13.4922Z" stroke="#4C4C4C" stroke-width="1.5" stroke-miterlimit="10"/>
<path d="M8.3633 8.55541C8.26545 9.91361 7.24597 10.9833 6.14703 10.9833C5.0481 10.9833 4.02694 9.91403 3.93076 8.55541C3.83082 7.14243 4.82312 6.13257 6.14703 6.13257C7.47094 6.13257 8.46324 7.16836 8.3633 8.55541Z" stroke="#4C4C4C" stroke-width="1.5" stroke-linecap="round" stroke-linejoin="round"/>
<path d="M8.61411 13.5758C7.85932 13.23 7.02801 13.097 6.14694 13.097C3.97249 13.097 1.87749 14.178 1.35269 16.2835C1.28369 16.562 1.45849 16.8375 1.74451 16.8375H6.43966" stroke="#4C4C4C" stroke-width="1.5" stroke-miterlimit="10" stroke-linecap="round"/>
</svg>
