<svg width="22" height="23" viewBox="0 0 22 23" fill="none" xmlns="http://www.w3.org/2000/svg">
<path d="M14.0501 11.4897C13.1904 11.4897 12.3591 11.1058 11.7084 10.4092C11.0757 9.72964 10.6894 8.82348 10.6212 7.85836C10.5484 6.82884 10.8625 5.88211 11.5052 5.19214C12.1479 4.50217 13.0466 4.13 14.0501 4.13C15.0466 4.13 15.9478 4.50886 16.5884 5.19716C17.2353 5.89215 17.5502 6.8372 17.4774 7.85794C17.4076 8.82431 17.0216 9.73006 16.3902 10.4087C15.7412 11.1058 14.9103 11.4897 14.0501 11.4897ZM19.5628 18.8494H8.53791C8.36065 18.8503 8.18554 18.8106 8.02605 18.7332C7.86656 18.6559 7.72695 18.543 7.61795 18.4032C7.50233 18.2517 7.42248 18.0759 7.38439 17.8892C7.3463 17.7024 7.35095 17.5095 7.39799 17.3248C7.75009 15.9109 8.62238 14.7384 9.92036 13.9343C11.0724 13.2209 12.5389 12.8278 14.0501 12.8278C15.5911 12.8278 17.0191 13.2042 18.1778 13.9171C19.4788 14.7171 20.3523 15.8963 20.7027 17.3273C20.7492 17.5121 20.7533 17.7051 20.7148 17.8917C20.6763 18.0784 20.5961 18.2539 20.4803 18.4053C20.3714 18.5444 20.2321 18.6568 20.073 18.7338C19.914 18.8107 19.7395 18.8503 19.5628 18.8494ZM6.14685 11.657C4.67533 11.657 3.38153 10.2887 3.26151 8.60729C3.20214 7.74587 3.4706 6.94927 4.01421 6.36509C4.55197 5.78677 5.31052 5.46813 6.14685 5.46813C6.98317 5.46813 7.73587 5.78844 8.27656 6.37011C8.82435 6.95888 9.09198 7.75381 9.02925 8.60812C8.90924 10.2891 7.61586 11.657 6.14685 11.657ZM8.89251 12.9721C8.15696 12.6125 7.20229 12.4327 6.14726 12.4327C4.91535 12.4327 3.71899 12.7538 2.77812 13.3367C1.71138 13.9987 0.993811 14.9625 0.704024 16.1263C0.661615 16.2937 0.657604 16.4685 0.69229 16.6377C0.726976 16.8068 0.799462 16.9659 0.904324 17.1031C1.00383 17.2309 1.1313 17.3341 1.27694 17.4048C1.42258 17.4756 1.5825 17.512 1.74442 17.5113H6.38604C6.46438 17.5112 6.54023 17.4837 6.60037 17.4335C6.66052 17.3833 6.70113 17.3136 6.71513 17.2365C6.71973 17.2102 6.72559 17.1838 6.73228 17.1579C7.08688 15.7336 7.91777 14.5302 9.1455 13.6529C9.19066 13.6203 9.22698 13.577 9.25117 13.5269C9.27536 13.4767 9.28666 13.4214 9.28405 13.3658C9.28143 13.3102 9.26498 13.2561 9.23619 13.2084C9.20739 13.1608 9.16717 13.1211 9.11916 13.0929C9.0535 13.0545 8.97824 13.0139 8.89251 12.9721Z" fill="#640FAF"/>
</svg>
