<svg width="22" height="23" viewBox="0 0 22 23" fill="none" xmlns="http://www.w3.org/2000/svg">
<path d="M18.6075 9.88032V18.9012C18.6075 19.4908 18.3707 20.0564 17.9491 20.4733C17.5275 20.8903 16.9557 21.1245 16.3594 21.1245H5.86843C5.27221 21.1245 4.7004 20.8903 4.27881 20.4733C3.85721 20.0564 3.62036 19.4908 3.62036 18.9012V4.07871C3.62036 3.48904 3.85721 2.92352 4.27881 2.50656C4.7004 2.08959 5.27221 1.85535 5.86843 1.85535H10.4934C10.8907 1.85541 11.2718 2.01152 11.5528 2.28937L18.1687 8.83255C18.4496 9.11046 18.6074 9.48734 18.6075 9.88032Z" fill="#640FAF" stroke="white" stroke-width="1.2352" stroke-linejoin="round"/>
<path d="M10.0427 1.85535V7.77133C10.0427 8.18973 10.2327 8.591 10.5708 8.88685C10.9089 9.18271 11.3675 9.34892 11.8457 9.34892H18.6068" stroke="white" stroke-width="1.2352" stroke-linecap="round" stroke-linejoin="round"/>
</svg>
