<svg width="22" height="23" viewBox="0 0 22 23" fill="none" xmlns="http://www.w3.org/2000/svg">
<path d="M17.6388 9.52512V9.52511H17.6349H14.0309C13.3677 9.52511 13.0613 9.40282 12.9136 9.27209C12.7853 9.15855 12.6591 8.93155 12.6591 8.37637V4.33519C12.6591 3.78575 12.7847 3.55733 12.9145 3.44202C13.0629 3.31015 13.3699 3.18645 14.0309 3.18645H17.6349C18.2959 3.18645 18.6029 3.31015 18.7513 3.44202C18.8811 3.55733 19.0067 3.78575 19.0067 4.33519V8.38529C19.0067 8.93519 18.8809 9.16266 18.7522 9.27655C18.6051 9.4067 18.2995 9.52927 17.6388 9.52512Z" fill="#640FAF" stroke="#640FAF" stroke-width="1.2352"/>
<path d="M19.0067 14.8172V18.4213C19.0067 19.0687 18.8728 19.3632 18.7248 19.5112C18.5769 19.6591 18.2823 19.7931 17.6349 19.7931H14.0309C13.3835 19.7931 13.0889 19.6591 12.941 19.5112C12.793 19.3632 12.6591 19.0687 12.6591 18.4213V14.8172C12.6591 14.1699 12.793 13.8753 12.941 13.7274C13.0889 13.5794 13.3835 13.4455 14.0309 13.4455H17.6349C18.2823 13.4455 18.5769 13.5794 18.7248 13.7274C18.8728 13.8753 19.0067 14.1699 19.0067 14.8172Z" fill="#640FAF" stroke="#640FAF" stroke-width="1.2352"/>
<path d="M7.37977 9.52512V9.52511H7.37589H3.77184C3.10864 9.52511 2.80227 9.40282 2.65455 9.27209C2.52627 9.15855 2.40007 8.93155 2.40007 8.37637V4.33519C2.40007 3.78575 2.52567 3.55733 2.65546 3.44202C2.80387 3.31015 3.11084 3.18645 3.77184 3.18645H7.37589C8.03689 3.18645 8.34386 3.31015 8.49227 3.44202C8.62205 3.55733 8.74765 3.78575 8.74765 4.33519V8.38529C8.74765 8.93519 8.62185 9.16266 8.49317 9.27655C8.3461 9.4067 8.04043 9.52927 7.37977 9.52512Z" fill="#640FAF" stroke="#640FAF" stroke-width="1.2352"/>
<path d="M8.74765 14.8172V18.4213C8.74765 19.0687 8.61372 19.3632 8.46577 19.5112C8.31782 19.6591 8.02325 19.7931 7.37589 19.7931H3.77184C3.12448 19.7931 2.8299 19.6591 2.68195 19.5112C2.53401 19.3632 2.40007 19.0687 2.40007 18.4213V14.8172C2.40007 14.1699 2.53401 13.8753 2.68195 13.7274C2.8299 13.5794 3.12448 13.4455 3.77184 13.4455H7.37589C8.02324 13.4455 8.31782 13.5794 8.46577 13.7274C8.61372 13.8753 8.74765 14.1699 8.74765 14.8172Z" fill="#640FAF" stroke="#640FAF" stroke-width="1.2352"/>
</svg>
