<svg width="22" height="23" viewBox="0 0 22 23" fill="none" xmlns="http://www.w3.org/2000/svg">
<path d="M0.230591 3.45628C0.230591 2.74649 0.512552 2.06578 1.01445 1.56388C1.51634 1.06199 2.19706 0.780029 2.90684 0.780029H14.0984C14.4499 0.780029 14.7979 0.849253 15.1226 0.983747C15.4473 1.11824 15.7423 1.31537 15.9908 1.56388C16.2393 1.8124 16.4365 2.10742 16.571 2.43212C16.7055 2.75682 16.7747 3.10483 16.7747 3.45628V14.4046H21.6406V18.5406C21.6406 19.5085 21.2561 20.4367 20.5717 21.1211C19.8873 21.8055 18.959 22.19 17.9912 22.19H3.88002C2.91213 22.19 1.98389 21.8055 1.29948 21.1211C0.615083 20.4367 0.230591 19.5085 0.230591 18.5406V3.45628ZM16.7747 20.7303H17.9912C18.5719 20.7303 19.1288 20.4996 19.5395 20.0889C19.9501 19.6783 20.1808 19.1213 20.1808 18.5406V15.8643H16.7747V20.7303ZM4.12332 6.37582C4.12332 6.77872 4.45031 7.10571 4.8532 7.10571H12.1521C12.3456 7.10571 12.5313 7.02881 12.6682 6.89193C12.8051 6.75505 12.882 6.5694 12.882 6.37582C12.882 6.18225 12.8051 5.9966 12.6682 5.85972C12.5313 5.72284 12.3456 5.64594 12.1521 5.64594H4.8532C4.65963 5.64594 4.47398 5.72284 4.3371 5.85972C4.20022 5.9966 4.12332 6.18225 4.12332 6.37582ZM4.8532 10.5118C4.65963 10.5118 4.47398 10.5887 4.3371 10.7256C4.20022 10.8625 4.12332 11.0482 4.12332 11.2417C4.12332 11.4353 4.20022 11.621 4.3371 11.7578C4.47398 11.8947 4.65963 11.9716 4.8532 11.9716H12.1521C12.3456 11.9716 12.5313 11.8947 12.6682 11.7578C12.8051 11.621 12.882 11.4353 12.882 11.2417C12.882 11.0482 12.8051 10.8625 12.6682 10.7256C12.5313 10.5887 12.3456 10.5118 12.1521 10.5118H4.8532ZM4.12332 16.1076C4.12332 16.5105 4.45031 16.8375 4.8532 16.8375H8.25934C8.45292 16.8375 8.63857 16.7606 8.77545 16.6238C8.91233 16.4869 8.98923 16.3012 8.98923 16.1076C8.98923 15.9141 8.91233 15.7284 8.77545 15.5915C8.63857 15.4547 8.45292 15.3778 8.25934 15.3778H4.8532C4.65963 15.3778 4.47398 15.4547 4.3371 15.5915C4.20022 15.7284 4.12332 15.9141 4.12332 16.1076Z" fill="#640FAF"/>
</svg>
