<svg width="22" height="23" viewBox="0 0 22 23" fill="none" xmlns="http://www.w3.org/2000/svg">
<path d="M0.233032 3.46094C0.233032 2.75115 0.514996 2.07043 1.0169 1.56853C1.51879 1.06663 2.19952 0.784668 2.90931 0.784668H14.101C14.4525 0.784668 14.8005 0.853892 15.1252 0.988387C15.4499 1.12288 15.7449 1.32002 15.9934 1.56853C16.2419 1.81705 16.4391 2.11208 16.5736 2.43678C16.7081 2.76148 16.7773 3.10949 16.7773 3.46094V14.4093H21.6432V18.5454C21.6432 19.5133 21.2587 20.4416 20.5743 21.126C19.8899 21.8104 18.9617 22.1949 17.9938 22.1949H3.8825C2.9146 22.1949 1.98634 21.8104 1.30194 21.126C0.617529 20.4416 0.233032 19.5133 0.233032 18.5454V3.46094ZM16.7773 20.7351H17.9938C18.5745 20.7351 19.1315 20.5044 19.5421 20.0938C19.9528 19.6831 20.1835 19.1262 20.1835 18.5454V15.8691H16.7773V20.7351ZM2.90931 2.24446C2.23781 2.24446 1.69282 2.78944 1.69282 3.46094V18.5454C1.69282 19.1262 1.92352 19.6831 2.33416 20.0938C2.74481 20.5044 3.30176 20.7351 3.8825 20.7351H15.3175V3.46094C15.3175 2.78944 14.7725 2.24446 14.101 2.24446H2.90931ZM4.85569 5.65063C4.66211 5.65063 4.47646 5.72752 4.33958 5.86441C4.2027 6.00129 4.1258 6.18694 4.1258 6.38052C4.1258 6.5741 4.2027 6.75975 4.33958 6.89663C4.47646 7.03351 4.66211 7.11041 4.85569 7.11041H12.1546C12.3482 7.11041 12.5339 7.03351 12.6707 6.89663C12.8076 6.75975 12.8845 6.5741 12.8845 6.38052C12.8845 6.18694 12.8076 6.00129 12.6707 5.86441C12.5339 5.72752 12.3482 5.65063 12.1546 5.65063H4.85569ZM4.1258 11.2465C4.1258 11.0529 4.2027 10.8672 4.33958 10.7304C4.47646 10.5935 4.66211 10.5166 4.85569 10.5166H12.1546C12.3482 10.5166 12.5339 10.5935 12.6707 10.7304C12.8076 10.8672 12.8845 11.0529 12.8845 11.2465C12.8845 11.4401 12.8076 11.6257 12.6707 11.7626C12.5339 11.8995 12.3482 11.9764 12.1546 11.9764H4.85569C4.66211 11.9764 4.47646 11.8995 4.33958 11.7626C4.2027 11.6257 4.1258 11.4401 4.1258 11.2465ZM4.85569 15.3825C4.66211 15.3825 4.47646 15.4594 4.33958 15.5963C4.2027 15.7332 4.1258 15.9189 4.1258 16.1124C4.1258 16.306 4.2027 16.4917 4.33958 16.6285C4.47646 16.7654 4.66211 16.8423 4.85569 16.8423H8.26186C8.45544 16.8423 8.64109 16.7654 8.77797 16.6285C8.91486 16.4917 8.99176 16.306 8.99176 16.1124C8.99176 15.9189 8.91486 15.7332 8.77797 15.5963C8.64109 15.4594 8.45544 15.3825 8.26186 15.3825H4.85569Z" fill="#4C4C4C"/>
</svg>
