<svg width="27" height="27" viewBox="0 0 27 27" fill="none" xmlns="http://www.w3.org/2000/svg">
<path d="M13.305 2.79993C11.1877 2.79993 9.11803 3.42776 7.3576 4.60404C5.59717 5.78032 4.22509 7.45222 3.41485 9.4083C2.60461 11.3644 2.39262 13.5168 2.80567 15.5934C3.21873 17.6699 4.23828 19.5774 5.7354 21.0745C7.23252 22.5716 9.13997 23.5912 11.2165 24.0042C13.2931 24.4173 15.4455 24.2053 17.4016 23.3951C19.3577 22.5848 21.0296 21.2127 22.2059 19.4523C23.3821 17.6919 24.01 15.6222 24.01 13.5049C24.007 10.6667 22.8782 7.94559 20.8712 5.93866C18.8643 3.93173 16.1432 2.80292 13.305 2.79993ZM19.0692 14.3284H13.305C13.0866 14.3284 12.8771 14.2416 12.7227 14.0872C12.5683 13.9328 12.4815 13.7233 12.4815 13.5049V7.74069C12.4815 7.5223 12.5683 7.31285 12.7227 7.15842C12.8771 7.00399 13.0866 6.91723 13.305 6.91723C13.5234 6.91723 13.7328 7.00399 13.8873 7.15842C14.0417 7.31285 14.1284 7.5223 14.1284 7.74069V12.6815H19.0692C19.2876 12.6815 19.4971 12.7682 19.6515 12.9226C19.8059 13.0771 19.8927 13.2865 19.8927 13.5049C19.8927 13.7233 19.8059 13.9328 19.6515 14.0872C19.4971 14.2416 19.2876 14.3284 19.0692 14.3284Z" fill="#640FAF"/>
</svg>
