<svg width="22" height="23" viewBox="0 0 22 23" fill="none" xmlns="http://www.w3.org/2000/svg">
<g clip-path="url(#clip0_2059_785)">
<path d="M11.292 0.784668C9.17469 0.784668 7.10497 1.41251 5.34452 2.5888C3.58408 3.7651 2.21198 5.437 1.40174 7.39311C0.591491 9.34921 0.379495 11.5016 0.792553 13.5782C1.20561 15.6548 2.22517 17.5623 3.72231 19.0594C5.21945 20.5566 7.12691 21.5761 9.2035 21.9892C11.2801 22.4022 13.4325 22.1902 15.3886 21.38C17.3447 20.5698 19.0166 19.1977 20.1929 17.4372C21.3692 15.6768 21.9971 13.607 21.9971 11.4898C21.9941 8.65152 20.8652 5.93038 18.8583 3.92343C16.8514 1.91648 14.1302 0.787665 11.292 0.784668ZM11.292 20.5479C9.50043 20.5479 7.74912 20.0167 6.25951 19.0214C4.76991 18.026 3.6089 16.6113 2.92331 14.9562C2.23772 13.301 2.05834 11.4797 2.40785 9.72261C2.75736 7.9655 3.62006 6.35149 4.88687 5.08468C6.15368 3.81788 7.76769 2.95517 9.5248 2.60566C11.2819 2.25615 13.1032 2.43553 14.7584 3.12112C16.4135 3.80671 17.8282 4.96772 18.8236 6.45732C19.8189 7.94693 20.3501 9.69824 20.3501 11.4898C20.3474 13.8913 19.3922 16.1937 17.694 17.8919C15.9959 19.59 13.6935 20.5452 11.292 20.5479ZM17.8797 11.4898C17.8797 11.7082 17.793 11.9176 17.6385 12.0721C17.4841 12.2265 17.2746 12.3132 17.0562 12.3132H11.292C11.0736 12.3132 10.8641 12.2265 10.7097 12.0721C10.5553 11.9176 10.4685 11.7082 10.4685 11.4898V5.72548C10.4685 5.50709 10.5553 5.29764 10.7097 5.1432C10.8641 4.98877 11.0736 4.90202 11.292 4.90202C11.5104 4.90202 11.7198 4.98877 11.8742 5.1432C12.0287 5.29764 12.1154 5.50709 12.1154 5.72548V10.6663H17.0562C17.2746 10.6663 17.4841 10.7531 17.6385 10.9075C17.793 11.0619 17.8797 11.2714 17.8797 11.4898Z" fill="#4C4C4C"/>
</g>
<defs>
<clipPath id="clip0_2059_785">
<rect width="21.4102" height="21.4102" fill="white" transform="translate(0.585938 0.784668)"/>
</clipPath>
</defs>
</svg>
